<svg xmlns="http://www.w3.org/2000/svg" width="500" height="500" fill="none"><path fill="#00C6D7" d="M243.581 0c-52.427 0-106.467 8.039-143.569 31.35-59.685 36.978-77.43 109.325-75.817 175.242 1.614 57.074 16.938 118.971 58.073 161.575 38.715 40.193 119.372 58.682 174.218 58.682 2.42 0 4.839 1.608 4.839 4.823v57.878c0 5.627 4.84 10.45 10.486 10.45h.807c2.419 0 4.032-.804 5.645-2.411 27.424-23.312 54.847-47.428 82.27-72.348 25.81-23.312 54.846-48.231 74.204-76.366 41.941-59.486 48.394-144.695 34.682-214.631C455.708 66.72 408.121 22.508 341.176 8.842 312.946 4.02 278.264 0 243.581 0Z"/></svg>